<?xml version="1.0" standalone="no"?>
<!DOCTYPE svg PUBLIC "-//W3C//DTD SVG 20010904//EN"
 "http://www.w3.org/TR/2001/REC-SVG-20010904/DTD/svg10.dtd">
<svg version="1.0" xmlns="http://www.w3.org/2000/svg"
 width="192.000000pt" height="192.000000pt" viewBox="0 0 192.000000 192.000000"
 preserveAspectRatio="xMidYMid meet">
<g transform="translate(0.000000,192.000000) scale(0.100000,-0.100000)"
fill="#000000" stroke="none">
<path d="M715 1777 c-132 -77 -316 -184 -410 -238 l-170 -98 0 -477 0 -477 50
-32 c27 -18 77 -47 110 -65 63 -35 118 -67 150 -88 11 -6 27 -15 35 -19 8 -4
49 -27 90 -51 41 -25 91 -54 110 -65 30 -16 124 -72 195 -114 64 -38 88 -46
104 -36 9 5 36 21 61 35 25 14 95 54 156 90 61 36 117 68 125 71 8 4 75 43
149 87 74 44 151 88 170 98 19 9 37 20 40 23 3 4 24 17 48 29 23 12 46 30 51
39 4 9 7 226 7 484 l-1 467 -58 35 c-32 19 -59 35 -61 35 -2 0 -43 24 -92 53
-49 29 -114 67 -144 84 -30 17 -138 79 -240 138 -102 59 -196 113 -210 119
-23 12 -42 3 -265 -127z"/>
</g>
</svg>
